<?xml version="1.0" encoding="utf-8"?>
<!-- Generator: Adobe Illustrator 26.5.0, SVG Export Plug-In . SVG Version: 6.00 Build 0)  -->
<svg version="1.1" id="Camada_1" xmlns="http://www.w3.org/2000/svg" xmlns:xlink="http://www.w3.org/1999/xlink" x="0px" y="0px"
	 viewBox="0 0 223 200" style="enable-background:new 0 0 223 200;" xml:space="preserve">
<g>
	<path d="M48.5,102.8c21-34.2,41.9-68.4,63-102.8c21.1,34.4,42,68.6,63,102.8c-0.7,0.4-1.2,0.8-1.8,1.1
		c-19.7,11.5-39.5,23-59.2,34.6c-1.5,0.9-2.5,0.8-3.9,0c-19.6-11.5-39.2-22.9-58.9-34.3C50,103.8,49.3,103.3,48.5,102.8z"/>
	<path d="M111.5,200c-20.7-28.8-41.2-57.3-61.8-85.8c0.1-0.1,0.1-0.2,0.2-0.3c0.7,0.4,1.4,0.8,2.1,1.2
		c19.1,11.6,38.2,23.2,57.3,34.8c1.6,1,2.7,1,4.3,0c18.7-11.7,37.4-23.3,56.2-34.9c0.6-0.4,1.2-0.7,2-0.8
		C151.8,142.7,131.8,171.2,111.5,200z"/>
</g>
</svg>
