<?xml version="1.0" encoding="utf-8"?>
<!-- Generator: Adobe Illustrator 26.5.0, SVG Export Plug-In . SVG Version: 6.00 Build 0)  -->
<svg version="1.1" id="Camada_1" xmlns="http://www.w3.org/2000/svg" xmlns:xlink="http://www.w3.org/1999/xlink" x="0px" y="0px"
	 viewBox="0 0 223 200" style="enable-background:new 0 0 223 200;" xml:space="preserve">
<style type="text/css">
	.st0{fill:#FFFFFF;}
</style>
<g>
	<path d="M35.4,124.7c0-19,0-38.1,0-57.1c0-10,5.9-15.9,16-16c4.2,0,8.4-0.1,12.6,0c1.8,0.1,2.5-0.6,2.9-2.3
		c1.3-5.3,2.8-10.6,4.2-15.9C73.5,25,81,20.7,89.5,22.8c4.5,1.1,9,2.3,13.5,3.6c1.4,0.4,2.2,0.1,2.9-1.2c2.6-4.7,5.4-9.4,8.1-14.1
		C118.6,3,127,0.7,135.1,5.4c22.2,12.8,44.3,25.5,66.5,38.4c8.1,4.7,10.3,13.3,5.4,21.5c-19.3,32.1-38.6,64.1-57.9,96.2
		c-1,1.7-1.7,3.7-2.2,5.7c-1.5,6-3.5,11.9-4,18.3c-0.6,7.9-6.9,12.9-15.1,13c-11.8,0-23.7,0-35.5,0c-13.5,0-27.1,0-40.6,0
		c-10.1,0-16.1-6-16.1-16.1C35.4,163.1,35.4,143.9,35.4,124.7z M143.1,140.9c0.1,0,0.3,0.1,0.4,0.1c0.1-0.3,0.2-0.7,0.3-1
		c7.2-27,14.5-53.9,21.7-80.9c1-3.6-0.5-5.9-4.1-6.9c-24.6-6.6-49.2-13.2-73.8-19.8c-3.9-1.1-6.1,0.2-7.2,4.2c-1,3.8-2,7.5-3,11.3
		c-0.3,1.1-0.5,2.3-0.9,3.7c1.3,0,2.2,0,3.1,0c15.6,0,31.2,0,46.8,0c1.8,0,3.7,0,5.5,0.5c7,1.7,11.2,7.5,11.2,15.3
		c0,23.7,0,47.4,0,71.1C143.1,139.2,143.1,140.1,143.1,140.9z M157.3,127.6c0.1,0.1,0.2,0.1,0.4,0.2c0.4-0.6,0.8-1.2,1.2-1.9
		c13.1-21.7,26.2-43.4,39.3-65.1c2.6-4.3,2-6.5-2.2-9c-8.6-5-17.2-9.9-25.8-14.9c-13.3-7.7-26.6-15.4-39.9-23
		c-3.4-2-5.9-1.3-7.9,2.1c-1.2,2-2.3,4-3.4,5.9c-1.4,2.5-2.8,5-4.3,7.6c0.7,0.2,1,0.3,1.4,0.4c15.8,4.2,31.5,8.5,47.3,12.7
		c9.8,2.6,14.1,9.9,11.5,19.7c-4.5,16.8-9,33.6-13.5,50.4C160,117.6,158.7,122.6,157.3,127.6z M118.6,125.4c0-4.7-0.1-9.3,0-14
		c0-2.5-0.9-4.2-3.1-5.4c-7.7-4.6-15.3-9.1-23-13.8c-2.3-1.4-4.4-1.3-6.6,0c-7.6,4.6-15.1,9.2-22.8,13.7c-2.3,1.4-3.3,3.2-3.3,5.8
		c0.1,9.1,0,18.2,0,27.3c0,2.5,0.9,4.3,3.1,5.6c7.7,4.5,15.4,9.1,23,13.8c2.2,1.3,4.2,1.4,6.4,0.1c7.7-4.7,15.4-9.3,23.2-13.9
		c2.1-1.3,3.1-3,3-5.5C118.5,134.6,118.6,130,118.6,125.4z"/>
	<path class="st0" d="M69.7,125.3c0,3.4,0,6.7,0,10.1c0,1.3,0.3,2.1,1.5,2.8c5.6,3.3,11.2,6.6,16.7,10c1.1,0.7,1.8,0.6,2.9,0
		c5.5-3.4,11.1-6.7,16.6-10.1c0.7-0.5,1.4-1.6,1.4-2.4c0.1-6.9,0.1-13.7,0-20.6c0-0.8-0.7-2-1.4-2.4c-5.5-3.4-11.1-6.7-16.6-10.1
		c-1.1-0.7-1.8-0.7-2.9,0c-5.5,3.4-11.1,6.7-16.7,10c-1.2,0.7-1.5,1.5-1.5,2.8C69.8,118.6,69.7,121.9,69.7,125.3z"/>
	<path d="M69.7,125.3c0-3.4,0-6.7,0-10.1c0-1.3,0.3-2.1,1.5-2.8c5.6-3.3,11.2-6.6,16.7-10c1.1-0.7,1.8-0.6,2.9,0
		c5.5,3.4,11.1,6.7,16.6,10.1c0.7,0.4,1.4,1.6,1.4,2.4c0.1,6.9,0.1,13.7,0,20.6c0,0.8-0.7,2-1.4,2.4c-5.5,3.4-11.1,6.7-16.6,10.1
		c-1,0.6-1.8,0.7-2.9,0c-5.5-3.4-11.1-6.7-16.7-10c-1.2-0.7-1.5-1.5-1.5-2.8C69.8,132,69.7,128.7,69.7,125.3z"/>
</g>
</svg>
